<svg viewBox="0 0 330 200" xmlns="http://www.w3.org/2000/svg"><g><g><g><g><g><line x1="51.5625" y1="176.921875" x2="46.5625" y2="176.921875" style="visibility: inherit;" fill="rgb(0, 0, 0)" stroke="rgb(204, 204, 204)" stroke-width="1px"></line><line x1="51.5625" y1="159.22968749999995" x2="46.5625" y2="159.22968749999995" style="visibility: inherit;" fill="rgb(0, 0, 0)" stroke="rgb(204, 204, 204)" stroke-width="1px"></line><line x1="51.5625" y1="141.53749999999994" x2="46.5625" y2="141.53749999999994" style="visibility: inherit;" fill="rgb(0, 0, 0)" stroke="rgb(204, 204, 204)" stroke-width="1px"></line><line x1="51.5625" y1="123.84531249999988" x2="46.5625" y2="123.84531249999988" style="visibility: inherit;" fill="rgb(0, 0, 0)" stroke="rgb(204, 204, 204)" stroke-width="1px"></line><line x1="51.5625" y1="106.15312499999983" x2="46.5625" y2="106.15312499999983" style="visibility: inherit;" fill="rgb(0, 0, 0)" stroke="rgb(204, 204, 204)" stroke-width="1px"></line><line x1="51.5625" y1="88.4609374999998" x2="46.5625" y2="88.4609374999998" style="visibility: inherit;" fill="rgb(0, 0, 0)" stroke="rgb(204, 204, 204)" stroke-width="1px"></line><line x1="51.5625" y1="70.76874999999977" x2="46.5625" y2="70.76874999999977" style="visibility: inherit;" fill="rgb(0, 0, 0)" stroke="rgb(204, 204, 204)" stroke-width="1px"></line><line x1="51.5625" y1="53.07656250000012" x2="46.5625" y2="53.07656250000012" style="visibility: inherit;" fill="rgb(0, 0, 0)" stroke="rgb(204, 204, 204)" stroke-width="1px"></line><line x1="51.5625" y1="35.38437500000007" x2="46.5625" y2="35.38437500000007" style="visibility: inherit;" fill="rgb(0, 0, 0)" stroke="rgb(204, 204, 204)" stroke-width="1px"></line><line x1="51.5625" y1="17.692187500000035" x2="46.5625" y2="17.692187500000035" style="visibility: inherit;" fill="rgb(0, 0, 0)" stroke="rgb(204, 204, 204)" stroke-width="1px"></line><line x1="51.5625" y1="0" x2="46.5625" y2="0" style="visibility: inherit;" fill="rgb(0, 0, 0)" stroke="rgb(204, 204, 204)" stroke-width="1px"></line></g><g transform="translate(41.5625, 0)"><text x="0" y="176.921875" dx="0em" dy="0.3em" style="text-anchor: end; visibility: hidden; font-family: Roboto, sans-serif; font-size: 12px; font-weight: 200;" fill="rgb(33, 33, 33)" stroke="none" stroke-width="1px">3.12</text><text x="0" y="159.22968749999995" dx="0em" dy="0.3em" style="text-anchor: end; visibility: inherit; font-family: Roboto, sans-serif; font-size: 12px; font-weight: 200;" fill="rgb(33, 33, 33)" stroke="none" stroke-width="1px">3.14</text><text x="0" y="141.53749999999994" dx="0em" dy="0.3em" style="text-anchor: end; visibility: hidden; font-family: Roboto, sans-serif; font-size: 12px; font-weight: 200;" fill="rgb(33, 33, 33)" stroke="none" stroke-width="1px">3.16</text><text x="0" y="123.84531249999988" dx="0em" dy="0.3em" style="text-anchor: end; visibility: inherit; font-family: Roboto, sans-serif; font-size: 12px; font-weight: 200;" fill="rgb(33, 33, 33)" stroke="none" stroke-width="1px">3.18</text><text x="0" y="106.15312499999983" dx="0em" dy="0.3em" style="text-anchor: end; visibility: hidden; font-family: Roboto, sans-serif; font-size: 12px; font-weight: 200;" fill="rgb(33, 33, 33)" stroke="none" stroke-width="1px">3.2</text><text x="0" y="88.4609374999998" dx="0em" dy="0.3em" style="text-anchor: end; visibility: inherit; font-family: Roboto, sans-serif; font-size: 12px; font-weight: 200;" fill="rgb(33, 33, 33)" stroke="none" stroke-width="1px">3.22</text><text x="0" y="70.76874999999977" dx="0em" dy="0.3em" style="text-anchor: end; visibility: hidden; font-family: Roboto, sans-serif; font-size: 12px; font-weight: 200;" fill="rgb(33, 33, 33)" stroke="none" stroke-width="1px">3.24</text><text x="0" y="53.07656250000012" dx="0em" dy="0.3em" style="text-anchor: end; visibility: inherit; font-family: Roboto, sans-serif; font-size: 12px; font-weight: 200;" fill="rgb(33, 33, 33)" stroke="none" stroke-width="1px">3.26</text><text x="0" y="35.38437500000007" dx="0em" dy="0.3em" style="text-anchor: end; visibility: hidden; font-family: Roboto, sans-serif; font-size: 12px; font-weight: 200;" fill="rgb(33, 33, 33)" stroke="none" stroke-width="1px">3.28</text><text x="0" y="17.692187500000035" dx="0em" dy="0.3em" style="text-anchor: end; visibility: inherit; font-family: Roboto, sans-serif; font-size: 12px; font-weight: 200;" fill="rgb(33, 33, 33)" stroke="none" stroke-width="1px">3.3</text><text x="0" y="0" dx="0em" dy="0.3em" style="text-anchor: end; visibility: hidden; font-family: Roboto, sans-serif; font-size: 12px; font-weight: 200;" fill="rgb(33, 33, 33)" stroke="none" stroke-width="1px">3.32</text></g><line x1="51.5625" y1="0" x2="51.5625" y2="176.921875" fill="rgb(0, 0, 0)" stroke="rgb(204, 204, 204)" stroke-width="1px"></line></g></g><g transform="translate(51, 0)" clip-path="url(#clip_0)"><clipPath id="clip_0"><rect width="278" height="176"></rect></clipPath><g><g><g><line x1="0" y1="0" x2="0" y2="176.921875" fill="rgb(0, 0, 0)" stroke="rgb(66, 66, 66)" stroke-width="1px" opacity="0.25"></line><line x1="23.203125" y1="0" x2="23.203125" y2="176.921875" fill="rgb(0, 0, 0)" stroke="rgb(66, 66, 66)" stroke-width="1px" opacity="0.25"></line><line x1="46.40625" y1="0" x2="46.40625" y2="176.921875" fill="rgb(0, 0, 0)" stroke="rgb(66, 66, 66)" stroke-width="1px" opacity="0.25"></line><line x1="69.609375" y1="0" x2="69.609375" y2="176.921875" fill="rgb(0, 0, 0)" stroke="rgb(66, 66, 66)" stroke-width="1px" opacity="0.25"></line><line x1="92.8125" y1="0" x2="92.8125" y2="176.921875" fill="rgb(0, 0, 0)" stroke="rgb(66, 66, 66)" stroke-width="1px" opacity="0.25"></line><line x1="116.015625" y1="0" x2="116.015625" y2="176.921875" fill="rgb(0, 0, 0)" stroke="rgb(66, 66, 66)" stroke-width="1px" opacity="0.25"></line><line x1="139.21875" y1="0" x2="139.21875" y2="176.921875" fill="rgb(0, 0, 0)" stroke="rgb(66, 66, 66)" stroke-width="1px" opacity="0.25"></line><line x1="162.421875" y1="0" x2="162.421875" y2="176.921875" fill="rgb(0, 0, 0)" stroke="rgb(66, 66, 66)" stroke-width="1px" opacity="0.25"></line><line x1="185.625" y1="0" x2="185.625" y2="176.921875" fill="rgb(0, 0, 0)" stroke="rgb(66, 66, 66)" stroke-width="1px" opacity="0.25"></line><line x1="208.828125" y1="0" x2="208.828125" y2="176.921875" fill="rgb(0, 0, 0)" stroke="rgb(66, 66, 66)" stroke-width="1px" opacity="0.25"></line><line x1="232.03125" y1="0" x2="232.03125" y2="176.921875" fill="rgb(0, 0, 0)" stroke="rgb(66, 66, 66)" stroke-width="1px" opacity="0.25"></line><line x1="255.234375" y1="0" x2="255.234375" y2="176.921875" fill="rgb(0, 0, 0)" stroke="rgb(66, 66, 66)" stroke-width="1px" opacity="0.25"></line><line x1="278.4375" y1="0" x2="278.4375" y2="176.921875" fill="rgb(0, 0, 0)" stroke="rgb(66, 66, 66)" stroke-width="1px" opacity="0.25"></line></g><g><line x1="0" y1="176.921875" x2="278.4375" y2="176.921875" fill="rgb(0, 0, 0)" stroke="rgb(66, 66, 66)" stroke-width="1px" opacity="0.25"></line><line x1="0" y1="159.22968749999995" x2="278.4375" y2="159.22968749999995" fill="rgb(0, 0, 0)" stroke="rgb(66, 66, 66)" stroke-width="1px" opacity="0.25"></line><line x1="0" y1="141.53749999999994" x2="278.4375" y2="141.53749999999994" fill="rgb(0, 0, 0)" stroke="rgb(66, 66, 66)" stroke-width="1px" opacity="0.25"></line><line x1="0" y1="123.84531249999988" x2="278.4375" y2="123.84531249999988" fill="rgb(0, 0, 0)" stroke="rgb(66, 66, 66)" stroke-width="1px" opacity="0.25"></line><line x1="0" y1="106.15312499999983" x2="278.4375" y2="106.15312499999983" fill="rgb(0, 0, 0)" stroke="rgb(66, 66, 66)" stroke-width="1px" opacity="0.25"></line><line x1="0" y1="88.4609374999998" x2="278.4375" y2="88.4609374999998" fill="rgb(0, 0, 0)" stroke="rgb(66, 66, 66)" stroke-width="1px" opacity="0.25"></line><line x1="0" y1="70.76874999999977" x2="278.4375" y2="70.76874999999977" fill="rgb(0, 0, 0)" stroke="rgb(66, 66, 66)" stroke-width="1px" opacity="0.25"></line><line x1="0" y1="53.07656250000012" x2="278.4375" y2="53.07656250000012" fill="rgb(0, 0, 0)" stroke="rgb(66, 66, 66)" stroke-width="1px" opacity="0.25"></line><line x1="0" y1="35.38437500000007" x2="278.4375" y2="35.38437500000007" fill="rgb(0, 0, 0)" stroke="rgb(66, 66, 66)" stroke-width="1px" opacity="0.25"></line><line x1="0" y1="17.692187500000035" x2="278.4375" y2="17.692187500000035" fill="rgb(0, 0, 0)" stroke="rgb(66, 66, 66)" stroke-width="1px" opacity="0.25"></line><line x1="0" y1="0" x2="278.4375" y2="0" fill="rgb(0, 0, 0)" stroke="rgb(66, 66, 66)" stroke-width="1px" opacity="0.25"></line></g></g></g><g><g><line x1="0" y1="2936.903125000004" x2="278.4375" y2="2936.903125000004" fill="rgb(0, 0, 0)" stroke="rgb(153, 153, 153)" stroke-width="1.5px"></line></g></g><g><g><line x1="23.203125" y1="0" x2="23.203125" y2="176.921875" fill="rgb(0, 0, 0)" stroke="rgb(153, 153, 153)" stroke-width="1.5px"></line></g></g><g><g><g><g><g><path stroke="rgb(255, 112, 67)" stroke-width="2px" d="M32.484375,-8.468295365137584L34.8046875,9.186043557401105L37.125,9.743199320552787L39.4453125,22.8511220865753L41.765625,24.831039064996077L44.0859375,38.59997807446302L46.40625,66.92167067248143L48.7265625,82.38848743281729L51.04687499999999,90.51582053997961L53.36718750000001,95.87384382926459L55.6875,103.37201821034874L58.0078125,77.42488702654326L60.328125,55.504737051013244L62.6484375,63.74015799764693L64.96875,109.14666780381881L67.2890625,146.24013727774752L69.609375,161.8822493749855L71.92968750000001,125.28822329895011L74.25,82.89031179428927L76.5703125,92.51140494314771L78.890625,118.31910200864812L81.2109375,106.4827780787894L83.53125,110.58060809432841L85.8515625,128.98491822133715L88.171875,158.5595917922879L90.4921875,156.1758969984344L92.8125,151.1635458640692L95.1328125,162.8587384652111L97.453125,154.965127698307L99.7734375,159.0985421215969L102.09374999999999,126.16354073176491L104.4140625,118.21832716846946L106.73437500000001,111.99070813189958L109.0546875,93.96280425041982L111.375,103.80687957393907L113.6953125,93.5567280494514L116.015625,99.40701001745859L118.3359375,98.21934540162361L120.65625,80.07939121878826L122.9765625,89.77803184889913L125.296875,104.58473598278398L127.6171875,117.90700753632932L129.9375,121.33540828183489L132.2578125,105.21240731116828L134.578125,94.16711867190412L136.8984375,107.18857668879421L139.21875,91.80198482322858L141.5390625,96.84052449286375L143.85937500000003,79.98732156226305L146.1796875,81.79351881724364L148.5,90.50406732340245L150.8203125,83.32693751143857L153.140625,89.60542262219015L155.4609375,76.73108328087525L157.78125,106.4545067802301L160.1015625,95.86028016866628L162.421875,107.78341823256866L164.7421875,88.2581168650794L167.0625,73.66379817093639L169.38281249999997,72.40226222017542L171.703125,84.47955665581927L174.0234375,81.99239222343833L176.34375,79.78823921046305L178.66406250000003,72.84700793183862L180.984375,85.17471464846749L183.3046875,103.17407097920304L185.625,95.43889726432825L187.9453125,107.98125523050238L190.265625,103.47913228434082L192.5859375,117.98452051586985L194.90625,93.09021893237254L197.2265625,92.74091555115099L199.546875,96.18593539438562L201.8671875,88.03786263580271L204.18749999999997,88.30460599818906L206.5078125,98.6191641006414L208.828125,110.50838610640457L211.1484375,108.91997403896625L213.46875000000003,118.80275385854738L215.7890625,118.89880991177633L218.109375,109.8093934982828L220.4296875,89.77960198729129L222.75,91.75643947070144L225.0703125,61.186228256793264L227.390625,41.53377659134358L229.7109375,52.73019005395322L232.03125,36.4203343694649L234.3515625,25.038780612364043L236.671875,30.05533089376364L238.99218749999997,36.45926586202908L241.3125,56.74606982297997L243.6328125,79.45491269366308L245.953125,86.63826553187603L248.27343750000003,96.83090393222487L250.59375,101.62376068548622L252.9140625,86.43020183930551" style="fill: none;" fill="none"></path></g></g></g></g><g opacity="0.2"><g><g><g><path stroke="rgb(255, 112, 67)" stroke-width="2px" d="M30.1640625,-36.38904462680239L32.484375,52.22977808564895L34.8046875,33.60834984928359L37.125,10.539940976351378L39.4453125,41.96259931549422L41.765625,27.751032029092208L44.0859375,59.04524781629437L46.40625,109.14733390212061L48.7265625,105.50454283952713L51.04687499999999,102.68028304800391L53.36718750000001,103.90038183778525L55.6875,114.61046595945956L58.0078125,38.52249017804853L60.328125,22.633787960559026L62.6484375,76.09119844511147L64.96875,177.24951528832327L69.609375,185.3445596702398L71.92968750000001,70.39838832691308L74.25,19.29428161010134L76.5703125,106.94293069541456L78.890625,157.0304641768337L81.2109375,88.72834266051647L83.53125,116.72734263241293L85.8515625,156.59135515689857L88.171875,202.9215749062599L90.4921875,152.6003561250866L92.8125,143.64502082467084L95.1328125,180.40152503997098L97.453125,143.12471249029045L99.7734375,165.29866346046336L102.09374999999999,76.76104006245728L104.4140625,106.3005070284009L106.73437500000001,102.64927967339754L109.0546875,66.9209485955536L111.375,118.57299250438811L113.6953125,78.18150079697367L116.015625,108.18243295773865L118.3359375,96.43784847930071L120.65625,52.86945995762938L122.9765625,104.32599278986454L125.296875,126.79479217976333L127.6171875,137.89041486456995L129.9375,126.47800939977171L132.2578125,81.02790585607286L134.578125,77.59918571338054L136.8984375,126.72076371386649L139.21875,68.72209702506657L141.5390625,104.39833399727941L143.85937500000003,54.70751716643566L146.1796875,84.50281469970939L148.5,103.56989008262754L150.8203125,72.56124279350038L153.140625,99.0231502883136L155.4609375,57.41957426890725L157.78125,151.03964202925567L160.1015625,79.96894025132056L162.421875,125.66812532842161L164.7421875,58.97016481384629L167.0625,51.772320129722296L169.38281249999997,70.50995829403396L171.703125,102.59549830928445L174.0234375,78.26164557486769L176.34375,76.48200969099994L178.66406250000003,62.43516101390117L180.984375,103.66627472341061L183.3046875,130.17310547530656L185.625,83.83613669201729L187.9453125,126.79479217976333L190.265625,96.72594786509869L192.5859375,139.7426028631628L194.90625,55.748766557127176L197.2265625,92.21696047931907L199.546875,101.35346515923739L201.8671875,75.81575349792834L204.18749999999997,88.70472104176876L206.5078125,114.09100125432016L208.828125,128.34221911504866L211.1484375,106.53735593780875L213.46875000000003,133.62692358791833L215.7890625,119.04289399161937L218.109375,96.17526887804267L220.4296875,59.73491472080344L222.75,94.72169569581744L225.0703125,15.3309114359318L227.390625,12.055099093168852L229.7109375,69.52481024786826L232.03125,11.95555084273207L234.3515625,7.966449976712344L236.671875,37.58015631586305L238.99218749999997,46.065168314427055L241.3125,87.1762757644057L243.6328125,113.51817699968817L245.953125,97.41329478919504L248.27343750000003,112.11986153274776L250.59375,108.81304581537844L252.9140625,63.63986357003444" style="fill: none;" fill="none"></path></g></g></g></g></g></g><g transform="translate(51, 176)" clip-path="url(#clip_1)"><clipPath id="clip_1"><rect width="278" height="23"></rect></clipPath><g><g><line x1="0" y1="0" x2="0" y2="5" style="visibility: inherit;" fill="rgb(0, 0, 0)" stroke="rgb(204, 204, 204)" stroke-width="1px"></line><line x1="23.203125" y1="0" x2="23.203125" y2="5" style="visibility: inherit;" fill="rgb(0, 0, 0)" stroke="rgb(204, 204, 204)" stroke-width="1px"></line><line x1="46.40625" y1="0" x2="46.40625" y2="5" style="visibility: inherit;" fill="rgb(0, 0, 0)" stroke="rgb(204, 204, 204)" stroke-width="1px"></line><line x1="69.609375" y1="0" x2="69.609375" y2="5" style="visibility: inherit;" fill="rgb(0, 0, 0)" stroke="rgb(204, 204, 204)" stroke-width="1px"></line><line x1="92.8125" y1="0" x2="92.8125" y2="5" style="visibility: inherit;" fill="rgb(0, 0, 0)" stroke="rgb(204, 204, 204)" stroke-width="1px"></line><line x1="116.015625" y1="0" x2="116.015625" y2="5" style="visibility: inherit;" fill="rgb(0, 0, 0)" stroke="rgb(204, 204, 204)" stroke-width="1px"></line><line x1="139.21875" y1="0" x2="139.21875" y2="5" style="visibility: inherit;" fill="rgb(0, 0, 0)" stroke="rgb(204, 204, 204)" stroke-width="1px"></line><line x1="162.421875" y1="0" x2="162.421875" y2="5" style="visibility: inherit;" fill="rgb(0, 0, 0)" stroke="rgb(204, 204, 204)" stroke-width="1px"></line><line x1="185.625" y1="0" x2="185.625" y2="5" style="visibility: inherit;" fill="rgb(0, 0, 0)" stroke="rgb(204, 204, 204)" stroke-width="1px"></line><line x1="208.828125" y1="0" x2="208.828125" y2="5" style="visibility: inherit;" fill="rgb(0, 0, 0)" stroke="rgb(204, 204, 204)" stroke-width="1px"></line><line x1="232.03125" y1="0" x2="232.03125" y2="5" style="visibility: inherit;" fill="rgb(0, 0, 0)" stroke="rgb(204, 204, 204)" stroke-width="1px"></line><line x1="255.234375" y1="0" x2="255.234375" y2="5" style="visibility: inherit;" fill="rgb(0, 0, 0)" stroke="rgb(204, 204, 204)" stroke-width="1px"></line><line x1="278.4375" y1="0" x2="278.4375" y2="5" style="visibility: inherit;" fill="rgb(0, 0, 0)" stroke="rgb(204, 204, 204)" stroke-width="1px"></line></g><g transform="translate(0, 8)"><text x="0" y="0" dx="0em" dy="0.95em" style="text-anchor: middle; visibility: hidden; font-family: Roboto, sans-serif; font-size: 12px; font-weight: 200;" fill="rgb(33, 33, 33)" stroke="none" stroke-width="1px">-10</text><text x="23.203125" y="0" dx="0em" dy="0.95em" style="text-anchor: middle; visibility: inherit; font-family: Roboto, sans-serif; font-size: 12px; font-weight: 200;" fill="rgb(33, 33, 33)" stroke="none" stroke-width="1px">0</text><text x="46.40625" y="0" dx="0em" dy="0.95em" style="text-anchor: middle; visibility: inherit; font-family: Roboto, sans-serif; font-size: 12px; font-weight: 200;" fill="rgb(33, 33, 33)" stroke="none" stroke-width="1px">10</text><text x="69.609375" y="0" dx="0em" dy="0.95em" style="text-anchor: middle; visibility: inherit; font-family: Roboto, sans-serif; font-size: 12px; font-weight: 200;" fill="rgb(33, 33, 33)" stroke="none" stroke-width="1px">20</text><text x="92.8125" y="0" dx="0em" dy="0.95em" style="text-anchor: middle; visibility: inherit; font-family: Roboto, sans-serif; font-size: 12px; font-weight: 200;" fill="rgb(33, 33, 33)" stroke="none" stroke-width="1px">30</text><text x="116.015625" y="0" dx="0em" dy="0.95em" style="text-anchor: middle; visibility: inherit; font-family: Roboto, sans-serif; font-size: 12px; font-weight: 200;" fill="rgb(33, 33, 33)" stroke="none" stroke-width="1px">40</text><text x="139.21875" y="0" dx="0em" dy="0.95em" style="text-anchor: middle; visibility: inherit; font-family: Roboto, sans-serif; font-size: 12px; font-weight: 200;" fill="rgb(33, 33, 33)" stroke="none" stroke-width="1px">50</text><text x="162.421875" y="0" dx="0em" dy="0.95em" style="text-anchor: middle; visibility: inherit; font-family: Roboto, sans-serif; font-size: 12px; font-weight: 200;" fill="rgb(33, 33, 33)" stroke="none" stroke-width="1px">60</text><text x="185.625" y="0" dx="0em" dy="0.95em" style="text-anchor: middle; visibility: inherit; font-family: Roboto, sans-serif; font-size: 12px; font-weight: 200;" fill="rgb(33, 33, 33)" stroke="none" stroke-width="1px">70</text><text x="208.828125" y="0" dx="0em" dy="0.95em" style="text-anchor: middle; visibility: inherit; font-family: Roboto, sans-serif; font-size: 12px; font-weight: 200;" fill="rgb(33, 33, 33)" stroke="none" stroke-width="1px">80</text><text x="232.03125" y="0" dx="0em" dy="0.95em" style="text-anchor: middle; visibility: inherit; font-family: Roboto, sans-serif; font-size: 12px; font-weight: 200;" fill="rgb(33, 33, 33)" stroke="none" stroke-width="1px">90</text><text x="255.234375" y="0" dx="0em" dy="0.95em" style="text-anchor: middle; visibility: inherit; font-family: Roboto, sans-serif; font-size: 12px; font-weight: 200;" fill="rgb(33, 33, 33)" stroke="none" stroke-width="1px">100</text><text x="278.4375" y="0" dx="0em" dy="0.95em" style="text-anchor: middle; visibility: hidden; font-family: Roboto, sans-serif; font-size: 12px; font-weight: 200;" fill="rgb(33, 33, 33)" stroke="none" stroke-width="1px">110</text></g><line x1="0" y1="0" x2="278.4375" y2="0" fill="rgb(0, 0, 0)" stroke="rgb(204, 204, 204)" stroke-width="1px"></line></g></g></g></g></svg>