<svg viewBox="0 0 330 200" xmlns="http://www.w3.org/2000/svg" style="background-color: #0d1117; border-radius: 8px;"><g><g><g><g><g><line x1="50" y1="176.984375" x2="45" y2="176.984375" style="visibility: inherit;" fill="rgb(0, 0, 0)" stroke="rgb(204, 204, 204)" stroke-width="1px"></line><line x1="50" y1="160.89488636363635" x2="45" y2="160.89488636363635" style="visibility: inherit;" fill="rgb(0, 0, 0)" stroke="rgb(204, 204, 204)" stroke-width="1px"></line><line x1="50" y1="144.8053977272727" x2="45" y2="144.8053977272727" style="visibility: inherit;" fill="rgb(0, 0, 0)" stroke="rgb(204, 204, 204)" stroke-width="1px"></line><line x1="50" y1="128.71590909090907" x2="45" y2="128.71590909090907" style="visibility: inherit;" fill="rgb(0, 0, 0)" stroke="rgb(204, 204, 204)" stroke-width="1px"></line><line x1="50" y1="112.6264204545454" x2="45" y2="112.6264204545454" style="visibility: inherit;" fill="rgb(0, 0, 0)" stroke="rgb(204, 204, 204)" stroke-width="1px"></line><line x1="50" y1="96.53693181818193" x2="45" y2="96.53693181818193" style="visibility: inherit;" fill="rgb(0, 0, 0)" stroke="rgb(204, 204, 204)" stroke-width="1px"></line><line x1="50" y1="80.44744318181827" x2="45" y2="80.44744318181827" style="visibility: inherit;" fill="rgb(0, 0, 0)" stroke="rgb(204, 204, 204)" stroke-width="1px"></line><line x1="50" y1="64.3579545454546" x2="45" y2="64.3579545454546" style="visibility: inherit;" fill="rgb(0, 0, 0)" stroke="rgb(204, 204, 204)" stroke-width="1px"></line><line x1="50" y1="48.26846590909096" x2="45" y2="48.26846590909096" style="visibility: inherit;" fill="rgb(0, 0, 0)" stroke="rgb(204, 204, 204)" stroke-width="1px"></line><line x1="50" y1="32.1789772727273" x2="45" y2="32.1789772727273" style="visibility: inherit;" fill="rgb(0, 0, 0)" stroke="rgb(204, 204, 204)" stroke-width="1px"></line><line x1="50" y1="16.08948863636366" x2="45" y2="16.08948863636366" style="visibility: inherit;" fill="rgb(0, 0, 0)" stroke="rgb(204, 204, 204)" stroke-width="1px"></line><line x1="50" y1="0" x2="45" y2="0" style="visibility: inherit;" fill="rgb(0, 0, 0)" stroke="rgb(204, 204, 204)" stroke-width="1px"></line></g><g transform="translate(40, 0)"><text x="0" y="176.984375" dx="0em" dy="0.3em" style="text-anchor: end; visibility: hidden; font-family: Roboto, sans-serif; font-size: 12px; font-weight: 200;" fill="rgb(255, 255, 255)" stroke="none" stroke-width="1px">0.52</text><text x="0" y="160.89488636363635" dx="0em" dy="0.3em" style="text-anchor: end; visibility: inherit; font-family: Roboto, sans-serif; font-size: 12px; font-weight: 200;" fill="rgb(255, 255, 255)" stroke="none" stroke-width="1px">0.53</text><text x="0" y="144.8053977272727" dx="0em" dy="0.3em" style="text-anchor: end; visibility: hidden; font-family: Roboto, sans-serif; font-size: 12px; font-weight: 200;" fill="rgb(255, 255, 255)" stroke="none" stroke-width="1px">0.54</text><text x="0" y="128.71590909090907" dx="0em" dy="0.3em" style="text-anchor: end; visibility: inherit; font-family: Roboto, sans-serif; font-size: 12px; font-weight: 200;" fill="rgb(255, 255, 255)" stroke="none" stroke-width="1px">0.55</text><text x="0" y="112.6264204545454" dx="0em" dy="0.3em" style="text-anchor: end; visibility: hidden; font-family: Roboto, sans-serif; font-size: 12px; font-weight: 200;" fill="rgb(255, 255, 255)" stroke="none" stroke-width="1px">0.56</text><text x="0" y="96.53693181818193" dx="0em" dy="0.3em" style="text-anchor: end; visibility: inherit; font-family: Roboto, sans-serif; font-size: 12px; font-weight: 200;" fill="rgb(255, 255, 255)" stroke="none" stroke-width="1px">0.57</text><text x="0" y="80.44744318181827" dx="0em" dy="0.3em" style="text-anchor: end; visibility: hidden; font-family: Roboto, sans-serif; font-size: 12px; font-weight: 200;" fill="rgb(255, 255, 255)" stroke="none" stroke-width="1px">0.58</text><text x="0" y="64.3579545454546" dx="0em" dy="0.3em" style="text-anchor: end; visibility: inherit; font-family: Roboto, sans-serif; font-size: 12px; font-weight: 200;" fill="rgb(255, 255, 255)" stroke="none" stroke-width="1px">0.59</text><text x="0" y="48.26846590909096" dx="0em" dy="0.3em" style="text-anchor: end; visibility: hidden; font-family: Roboto, sans-serif; font-size: 12px; font-weight: 200;" fill="rgb(255, 255, 255)" stroke="none" stroke-width="1px">0.6</text><text x="0" y="32.1789772727273" dx="0em" dy="0.3em" style="text-anchor: end; visibility: inherit; font-family: Roboto, sans-serif; font-size: 12px; font-weight: 200;" fill="rgb(255, 255, 255)" stroke="none" stroke-width="1px">0.61</text><text x="0" y="16.08948863636366" dx="0em" dy="0.3em" style="text-anchor: end; visibility: hidden; font-family: Roboto, sans-serif; font-size: 12px; font-weight: 200;" fill="rgb(255, 255, 255)" stroke="none" stroke-width="1px">0.62</text><text x="0" y="0" dx="0em" dy="0.3em" style="text-anchor: end; visibility: hidden; font-family: Roboto, sans-serif; font-size: 12px; font-weight: 200;" fill="rgb(255, 255, 255)" stroke="none" stroke-width="1px">0.63</text></g><line x1="50" y1="0" x2="50" y2="176.984375" fill="rgb(0, 0, 0)" stroke="rgb(204, 204, 204)" stroke-width="1px"></line></g></g><g transform="translate(50, 0)" clip-path="url(#clip_0)"><clipPath id="clip_0"><rect width="280" height="176"></rect></clipPath><g><g><g><line x1="0" y1="0" x2="0" y2="176.984375" fill="rgb(0, 0, 0)" stroke="rgb(189, 189, 189)" stroke-width="1px" opacity="0.25"></line><line x1="35" y1="0" x2="35" y2="176.984375" fill="rgb(0, 0, 0)" stroke="rgb(189, 189, 189)" stroke-width="1px" opacity="0.25"></line><line x1="70" y1="0" x2="70" y2="176.984375" fill="rgb(0, 0, 0)" stroke="rgb(189, 189, 189)" stroke-width="1px" opacity="0.25"></line><line x1="105" y1="0" x2="105" y2="176.984375" fill="rgb(0, 0, 0)" stroke="rgb(189, 189, 189)" stroke-width="1px" opacity="0.25"></line><line x1="140" y1="0" x2="140" y2="176.984375" fill="rgb(0, 0, 0)" stroke="rgb(189, 189, 189)" stroke-width="1px" opacity="0.25"></line><line x1="175" y1="0" x2="175" y2="176.984375" fill="rgb(0, 0, 0)" stroke="rgb(189, 189, 189)" stroke-width="1px" opacity="0.25"></line><line x1="210" y1="0" x2="210" y2="176.984375" fill="rgb(0, 0, 0)" stroke="rgb(189, 189, 189)" stroke-width="1px" opacity="0.25"></line><line x1="245" y1="0" x2="245" y2="176.984375" fill="rgb(0, 0, 0)" stroke="rgb(189, 189, 189)" stroke-width="1px" opacity="0.25"></line><line x1="280" y1="0" x2="280" y2="176.984375" fill="rgb(0, 0, 0)" stroke="rgb(189, 189, 189)" stroke-width="1px" opacity="0.25"></line></g><g><line x1="0" y1="176.984375" x2="280" y2="176.984375" fill="rgb(0, 0, 0)" stroke="rgb(189, 189, 189)" stroke-width="1px" opacity="0.25"></line><line x1="0" y1="160.89488636363635" x2="280" y2="160.89488636363635" fill="rgb(0, 0, 0)" stroke="rgb(189, 189, 189)" stroke-width="1px" opacity="0.25"></line><line x1="0" y1="144.8053977272727" x2="280" y2="144.8053977272727" fill="rgb(0, 0, 0)" stroke="rgb(189, 189, 189)" stroke-width="1px" opacity="0.25"></line><line x1="0" y1="128.71590909090907" x2="280" y2="128.71590909090907" fill="rgb(0, 0, 0)" stroke="rgb(189, 189, 189)" stroke-width="1px" opacity="0.25"></line><line x1="0" y1="112.6264204545454" x2="280" y2="112.6264204545454" fill="rgb(0, 0, 0)" stroke="rgb(189, 189, 189)" stroke-width="1px" opacity="0.25"></line><line x1="0" y1="96.53693181818193" x2="280" y2="96.53693181818193" fill="rgb(0, 0, 0)" stroke="rgb(189, 189, 189)" stroke-width="1px" opacity="0.25"></line><line x1="0" y1="80.44744318181827" x2="280" y2="80.44744318181827" fill="rgb(0, 0, 0)" stroke="rgb(189, 189, 189)" stroke-width="1px" opacity="0.25"></line><line x1="0" y1="64.3579545454546" x2="280" y2="64.3579545454546" fill="rgb(0, 0, 0)" stroke="rgb(189, 189, 189)" stroke-width="1px" opacity="0.25"></line><line x1="0" y1="48.26846590909096" x2="280" y2="48.26846590909096" fill="rgb(0, 0, 0)" stroke="rgb(189, 189, 189)" stroke-width="1px" opacity="0.25"></line><line x1="0" y1="32.1789772727273" x2="280" y2="32.1789772727273" fill="rgb(0, 0, 0)" stroke="rgb(189, 189, 189)" stroke-width="1px" opacity="0.25"></line><line x1="0" y1="16.08948863636366" x2="280" y2="16.08948863636366" fill="rgb(0, 0, 0)" stroke="rgb(189, 189, 189)" stroke-width="1px" opacity="0.25"></line><line x1="0" y1="0" x2="280" y2="0" fill="rgb(0, 0, 0)" stroke="rgb(189, 189, 189)" stroke-width="1px" opacity="0.25"></line></g></g></g><g><g><line x1="0" y1="1013.6377840909092" x2="280" y2="1013.6377840909092" fill="rgb(0, 0, 0)" stroke="rgb(153, 153, 153)" stroke-width="1.5px"></line></g></g><g><g><line x1="-700" y1="0" x2="-700" y2="176.984375" fill="rgb(0, 0, 0)" stroke="rgb(153, 153, 153)" stroke-width="1.5px"></line></g></g><g><g><g><g><g><path stroke="rgb(255, 112, 67)" stroke-width="2px" d="M20.299999999999997,110.13366646184164L22.05,104.96485172059727L23.8,73.2488096135018L25.55,9.365796523133815L27.3,-2.6093777873091515L29.049999999999997,37.8547867217687L30.8,12.4372731499522L32.305,78.69380124042807L34.055,103.9146472427019L35.805,74.44216730781717L37.555,88.22759254801349L39.305,64.54435919301068L41.055,56.131335579859886L42.805,17.55622503682028L44.31,69.8982501811162L46.06,94.48051374283922L47.81,76.75144565741863L49.559999999999995,79.54160174478996L51.31,7.164056264150042L53.06,-1.009282207196837L54.81,19.184894368310882L56.315,77.42626164071054L58.065,78.16057875567283L59.815000000000005,94.21922579136697L61.565,61.59362840152798L63.315,26.51777574734097L65.065,11.341093730968042L66.815,17.252942792765758L68.32,99.92698705634392L70.07,113.30555895183895L71.82000000000001,104.30201558340258L73.57,92.10815496540202L75.32000000000001,79.49458424593888L77.07,68.91695912900673L78.82,61.00954075081151L80.325,90.10780098549036L82.075,123.53566380747903L83.825,104.9431977468935L85.57499999999999,77.58350907879024L87.325,60.81926903734403L89.075,22.513136859377823L90.825,6.441567112468319L92.33,57.96750912604847L94.08000000000001,93.16915073837691L95.83,107.57289664166494L97.58,119.26049407611421L99.33,100.9223214456574L101.08,78.1999917510767L102.83000000000001,55.438638284467615L104.335,63.797433467075834L106.08500000000001,74.97740744005687L107.835,95.52092719501887L109.585,77.06655666090339L111.33500000000001,106.88596960400352L113.085,96.83648990294127L114.83500000000001,80.3604786042178L116.33999999999999,125.04117563154854L118.09,117.02969197110697L119.84,99.70344769287519L121.59,81.42576572115365L123.34,62.1785422216575L125.08999999999999,49.163539257417376L126.84,52.737428418586134L128.345,114.89162673799517L130.095,138.69538774340367L131.845,177.50034852901047L133.595,169.65125100700354L135.345,135.09147139328235L137.095,117.82870956026025L138.845,74.35603709865002L140.35,127.50930150331817L142.1,163.88203441496557L143.85000000000002,130.4823921603801L145.6,105.97903714687335L147.35,71.10524450755534L149.1,44.605601813267754L150.85,45.13374268220675L152.355,84.87023955300455L154.105,117.90005052163664L155.85500000000002,134.3509742012452L157.60500000000002,126.48248419788294L159.355,113.45664723171159L161.105,63.76347946456195L162.855,71.95415003077137L164.35999999999999,109.314448492763L166.11,123.62723797897925L167.86,136.27719391733126L169.61,156.47425163745703L171.35999999999999,138.82003663930453L173.10999999999999,126.02807974855183L174.86,128.70624365180228L176.36499999999998,164.0720738581444L178.115,164.50840540814335L179.865,137.48952667616572L181.615,132.36909154327373L183.365,135.01704618103847L185.11499999999998,111.22850416516336L186.865,85.49803061502398L188.36999999999998,145.44385624345844L190.12,144.3534697199864L191.87,125.67832188852829L193.62,117.89631725429417L195.37,120.75176176313286L197.11999999999998,101.00718040722116L198.87,107.75406724080854L200.375,126.61220217998441L202.125,140.93219305036376L203.875,138.0259087596627L205.625,150.31638006680245L207.375,135.3171537081997L209.125,117.73280615815571L210.875,114.99788474267156L212.38,149.2473555048648L214.13000000000002,157.09447494321947L215.88,150.63659153210182L217.63,155.5571563520743L219.38,142.3085084719595L221.13,129.16003731039171L222.88000000000002,86.52129050120278L224.385,123.4305494480622L226.13500000000002,185.4270023579556L229.635,177.39855896476217L231.385,164.74549772724583L233.135,145.10207276912485L234.88500000000002,111.96408260469632L236.39,163.29791281238465L238.14000000000001,154.83152204387187L239.89000000000001,177.42964400436986L241.64,157.40303154923794L243.39,168.18610436185983L245.14,154.51424291708935L246.89000000000001,151.53307943886932" style="fill: none;" fill="none"></path></g></g></g></g><g opacity="0.2"><g><g><g><path stroke="rgb(255, 112, 67)" stroke-width="2px" d="M20.299999999999997,110.13366646184164L22.05,101.86356287585065L23.8,42.80140919068998L25.55,-65.76062687113881L27.3,-18.244165367023495L29.049999999999997,93.83129333704711L30.8,-23.910177937962803L32.305,175.29645525901157L34.055,141.11049619892785L35.805,30.67896944521503L37.555,108.78069761598653L39.305,29.148392270573172L41.055,43.53927014192398L42.805,-40.230868120423764L44.31,148.34976181184706L46.06,131.33657176860356L47.81,50.165345876731664L49.559999999999995,83.72612745551902L51.31,-101.3912359662354L53.06,-13.26854283870619L54.81,49.47505173493517L56.315,164.78639609231192L58.065,79.2620399303057L59.815000000000005,118.30700611492453L61.565,12.655464205552237L63.315,-26.095853651450422L65.065,-11.423890460621202L66.815,26.12070730938153L68.32,223.93797729723158L70.07,133.3734094009481L71.82000000000001,90.796703516421L73.57,73.81736646457153L75.32000000000001,60.574229672551176L77.07,53.05052221126178L78.82,49.14841352335432L80.325,133.75519058717924L82.075,173.67745752327824L83.825,77.0544988286089L85.57499999999999,36.54397622902287L87.325,35.672909031198785L89.075,-34.946061330762774L90.825,-17.6657874885608L92.33,135.25642210922462L94.08000000000001,145.97161314162344L95.83,129.17851549285382L97.58,136.7918902259659L99.33,73.41506250168791L101.08,44.11649721048096L102.83000000000001,21.296608085320756L104.335,76.3356262408197L106.08500000000001,91.74736839939249L107.835,126.33620682731272L109.585,49.38500085981057L111.33500000000001,151.6150890185752L113.085,81.76227035136387L114.83500000000001,55.64646165614779L116.33999999999999,192.06222117251974L118.09,105.0124664804475L119.84,73.71408127553084L121.59,54.00924276357348L123.34,33.307706972414806L125.08999999999999,29.64103481105784L126.84,58.09826216033915L128.345,208.12292421710765L130.095,174.4010292515159L131.845,235.70778970742097L133.595,157.8776047239927L135.345,83.2518019727008L137.095,91.93456681072713L138.845,9.147028406235309L140.35,207.2391981103204L142.1,218.44113378243694L143.85000000000002,80.38292877850209L145.6,69.22400462661278L147.35,18.7945555485785L149.1,4.856137771836745L150.85,45.92595398561523L152.355,144.47498485920107L154.105,167.44476697458464L155.85500000000002,159.0273597206582L157.60500000000002,114.67974919283932L159.355,93.9178917824545L161.105,-10.776272186162801L162.855,84.24015588008545L164.35999999999999,165.35489618575033L166.11,145.09642220830378L167.86,155.2521278248592L169.61,186.7698382176459L171.35999999999999,112.33871414207603L173.10999999999999,106.84014441242276L174.86,132.72348950667816L176.36499999999998,217.12081916765734L178.115,165.16290273314175L179.865,96.96120857819916L181.615,124.68843884393574L183.365,138.9889781376855L185.11499999999998,75.54569114135072L186.865,46.90232028981502L188.36999999999998,235.36259468610993L190.12,142.71788993477824L191.87,97.66560014134107L193.62,106.223310302943L195.37,125.0349285263907L197.11999999999998,71.3903083733537L198.87,117.87439749118958L200.375,154.89940458874813L202.125,162.41217935593292L203.875,133.66648232361135L205.625,168.75208702751183L207.375,112.81831417029558L209.125,91.35628483308989L210.875,110.89550261944534L212.38,200.62156164815482L214.13000000000002,168.86515410075137L215.88,140.94976641542536L217.63,162.93800358203328L219.38,122.43553665178747L221.13,109.43733056804L222.88000000000002,22.563170287419453L224.385,178.7944378683513L226.13500000000002,278.4216817227955L227.885,175.39839783649555L229.635,171.37305658784783L231.385,145.76590587097138L233.135,115.63693533194338L234.88500000000002,62.257097358053386L236.39,240.29865812391722L238.14000000000001,142.13193589110267L239.89000000000001,211.3268269451166L241.64,127.36311286653986L243.39,184.36071358079263L245.14,134.00645074993375L246.89000000000001,147.0613342215392" style="fill: none;" fill="none"></path></g></g></g></g></g></g><g transform="translate(50, 176)" clip-path="url(#clip_1)"><clipPath id="clip_1"><rect width="280" height="23"></rect></clipPath><g><g><line x1="0" y1="0" x2="0" y2="5" style="visibility: inherit;" fill="rgb(0, 0, 0)" stroke="rgb(204, 204, 204)" stroke-width="1px"></line><line x1="35" y1="0" x2="35" y2="5" style="visibility: inherit;" fill="rgb(0, 0, 0)" stroke="rgb(204, 204, 204)" stroke-width="1px"></line><line x1="70" y1="0" x2="70" y2="5" style="visibility: inherit;" fill="rgb(0, 0, 0)" stroke="rgb(204, 204, 204)" stroke-width="1px"></line><line x1="105" y1="0" x2="105" y2="5" style="visibility: inherit;" fill="rgb(0, 0, 0)" stroke="rgb(204, 204, 204)" stroke-width="1px"></line><line x1="140" y1="0" x2="140" y2="5" style="visibility: inherit;" fill="rgb(0, 0, 0)" stroke="rgb(204, 204, 204)" stroke-width="1px"></line><line x1="175" y1="0" x2="175" y2="5" style="visibility: inherit;" fill="rgb(0, 0, 0)" stroke="rgb(204, 204, 204)" stroke-width="1px"></line><line x1="210" y1="0" x2="210" y2="5" style="visibility: inherit;" fill="rgb(0, 0, 0)" stroke="rgb(204, 204, 204)" stroke-width="1px"></line><line x1="245" y1="0" x2="245" y2="5" style="visibility: inherit;" fill="rgb(0, 0, 0)" stroke="rgb(204, 204, 204)" stroke-width="1px"></line><line x1="280" y1="0" x2="280" y2="5" style="visibility: inherit;" fill="rgb(0, 0, 0)" stroke="rgb(204, 204, 204)" stroke-width="1px"></line></g><g transform="translate(0, 8)"><text x="0" y="0" dx="0em" dy="0.95em" style="text-anchor: middle; visibility: hidden; font-family: Roboto, sans-serif; font-size: 12px; font-weight: 200;" fill="rgb(255, 255, 255)" stroke="none" stroke-width="1px">40k</text><text x="35" y="0" dx="0em" dy="0.95em" style="text-anchor: middle; visibility: inherit; font-family: Roboto, sans-serif; font-size: 12px; font-weight: 200;" fill="rgb(255, 255, 255)" stroke="none" stroke-width="1px">42k</text><text x="70" y="0" dx="0em" dy="0.95em" style="text-anchor: middle; visibility: inherit; font-family: Roboto, sans-serif; font-size: 12px; font-weight: 200;" fill="rgb(255, 255, 255)" stroke="none" stroke-width="1px">44k</text><text x="105" y="0" dx="0em" dy="0.95em" style="text-anchor: middle; visibility: inherit; font-family: Roboto, sans-serif; font-size: 12px; font-weight: 200;" fill="rgb(255, 255, 255)" stroke="none" stroke-width="1px">46k</text><text x="140" y="0" dx="0em" dy="0.95em" style="text-anchor: middle; visibility: inherit; font-family: Roboto, sans-serif; font-size: 12px; font-weight: 200;" fill="rgb(255, 255, 255)" stroke="none" stroke-width="1px">48k</text><text x="175" y="0" dx="0em" dy="0.95em" style="text-anchor: middle; visibility: inherit; font-family: Roboto, sans-serif; font-size: 12px; font-weight: 200;" fill="rgb(255, 255, 255)" stroke="none" stroke-width="1px">50k</text><text x="210" y="0" dx="0em" dy="0.95em" style="text-anchor: middle; visibility: inherit; font-family: Roboto, sans-serif; font-size: 12px; font-weight: 200;" fill="rgb(255, 255, 255)" stroke="none" stroke-width="1px">52k</text><text x="245" y="0" dx="0em" dy="0.95em" style="text-anchor: middle; visibility: inherit; font-family: Roboto, sans-serif; font-size: 12px; font-weight: 200;" fill="rgb(255, 255, 255)" stroke="none" stroke-width="1px">54k</text><text x="280" y="0" dx="0em" dy="0.95em" style="text-anchor: middle; visibility: hidden; font-family: Roboto, sans-serif; font-size: 12px; font-weight: 200;" fill="rgb(255, 255, 255)" stroke="none" stroke-width="1px">56k</text></g><line x1="0" y1="0" x2="280" y2="0" fill="rgb(0, 0, 0)" stroke="rgb(204, 204, 204)" stroke-width="1px"></line></g></g></g></g></svg>