<svg viewBox="0 0 330 200" xmlns="http://www.w3.org/2000/svg" style="background-color: #0d1117; border-radius: 8px;"><g><g><g><g><g><line x1="50" y1="176.984375" x2="45" y2="176.984375" style="visibility: inherit;" fill="rgb(0, 0, 0)" stroke="rgb(204, 204, 204)" stroke-width="1px"></line><line x1="50" y1="165.18541666666667" x2="45" y2="165.18541666666667" style="visibility: inherit;" fill="rgb(0, 0, 0)" stroke="rgb(204, 204, 204)" stroke-width="1px"></line><line x1="50" y1="153.38645833333334" x2="45" y2="153.38645833333334" style="visibility: inherit;" fill="rgb(0, 0, 0)" stroke="rgb(204, 204, 204)" stroke-width="1px"></line><line x1="50" y1="141.58749999999998" x2="45" y2="141.58749999999998" style="visibility: inherit;" fill="rgb(0, 0, 0)" stroke="rgb(204, 204, 204)" stroke-width="1px"></line><line x1="50" y1="129.78854166666667" x2="45" y2="129.78854166666667" style="visibility: inherit;" fill="rgb(0, 0, 0)" stroke="rgb(204, 204, 204)" stroke-width="1px"></line><line x1="50" y1="117.98958333333334" x2="45" y2="117.98958333333334" style="visibility: inherit;" fill="rgb(0, 0, 0)" stroke="rgb(204, 204, 204)" stroke-width="1px"></line><line x1="50" y1="106.190625" x2="45" y2="106.190625" style="visibility: inherit;" fill="rgb(0, 0, 0)" stroke="rgb(204, 204, 204)" stroke-width="1px"></line><line x1="50" y1="94.39166666666668" x2="45" y2="94.39166666666668" style="visibility: inherit;" fill="rgb(0, 0, 0)" stroke="rgb(204, 204, 204)" stroke-width="1px"></line><line x1="50" y1="82.59270833333335" x2="45" y2="82.59270833333335" style="visibility: inherit;" fill="rgb(0, 0, 0)" stroke="rgb(204, 204, 204)" stroke-width="1px"></line><line x1="50" y1="70.79375" x2="45" y2="70.79375" style="visibility: inherit;" fill="rgb(0, 0, 0)" stroke="rgb(204, 204, 204)" stroke-width="1px"></line><line x1="50" y1="58.99479166666669" x2="45" y2="58.99479166666669" style="visibility: inherit;" fill="rgb(0, 0, 0)" stroke="rgb(204, 204, 204)" stroke-width="1px"></line><line x1="50" y1="47.19583333333334" x2="45" y2="47.19583333333334" style="visibility: inherit;" fill="rgb(0, 0, 0)" stroke="rgb(204, 204, 204)" stroke-width="1px"></line><line x1="50" y1="35.39687500000001" x2="45" y2="35.39687500000001" style="visibility: inherit;" fill="rgb(0, 0, 0)" stroke="rgb(204, 204, 204)" stroke-width="1px"></line><line x1="50" y1="23.59791666666668" x2="45" y2="23.59791666666668" style="visibility: inherit;" fill="rgb(0, 0, 0)" stroke="rgb(204, 204, 204)" stroke-width="1px"></line><line x1="50" y1="11.798958333333351" x2="45" y2="11.798958333333351" style="visibility: inherit;" fill="rgb(0, 0, 0)" stroke="rgb(204, 204, 204)" stroke-width="1px"></line><line x1="50" y1="0" x2="45" y2="0" style="visibility: inherit;" fill="rgb(0, 0, 0)" stroke="rgb(204, 204, 204)" stroke-width="1px"></line></g><g transform="translate(40, 0)"><text x="0" y="176.984375" dx="0em" dy="0.3em" style="text-anchor: end; visibility: hidden; font-family: Roboto, sans-serif; font-size: 12px; font-weight: 200;" fill="rgb(255, 255, 255)" stroke="none" stroke-width="1px">0.22</text><text x="0" y="165.18541666666667" dx="0em" dy="0.3em" style="text-anchor: end; visibility: inherit; font-family: Roboto, sans-serif; font-size: 12px; font-weight: 200;" fill="rgb(255, 255, 255)" stroke="none" stroke-width="1px">0.24</text><text x="0" y="153.38645833333334" dx="0em" dy="0.3em" style="text-anchor: end; visibility: hidden; font-family: Roboto, sans-serif; font-size: 12px; font-weight: 200;" fill="rgb(255, 255, 255)" stroke="none" stroke-width="1px">0.26</text><text x="0" y="141.58749999999998" dx="0em" dy="0.3em" style="text-anchor: end; visibility: inherit; font-family: Roboto, sans-serif; font-size: 12px; font-weight: 200;" fill="rgb(255, 255, 255)" stroke="none" stroke-width="1px">0.28</text><text x="0" y="129.78854166666667" dx="0em" dy="0.3em" style="text-anchor: end; visibility: hidden; font-family: Roboto, sans-serif; font-size: 12px; font-weight: 200;" fill="rgb(255, 255, 255)" stroke="none" stroke-width="1px">0.3</text><text x="0" y="117.98958333333334" dx="0em" dy="0.3em" style="text-anchor: end; visibility: inherit; font-family: Roboto, sans-serif; font-size: 12px; font-weight: 200;" fill="rgb(255, 255, 255)" stroke="none" stroke-width="1px">0.32</text><text x="0" y="106.190625" dx="0em" dy="0.3em" style="text-anchor: end; visibility: hidden; font-family: Roboto, sans-serif; font-size: 12px; font-weight: 200;" fill="rgb(255, 255, 255)" stroke="none" stroke-width="1px">0.34</text><text x="0" y="94.39166666666668" dx="0em" dy="0.3em" style="text-anchor: end; visibility: inherit; font-family: Roboto, sans-serif; font-size: 12px; font-weight: 200;" fill="rgb(255, 255, 255)" stroke="none" stroke-width="1px">0.36</text><text x="0" y="82.59270833333335" dx="0em" dy="0.3em" style="text-anchor: end; visibility: hidden; font-family: Roboto, sans-serif; font-size: 12px; font-weight: 200;" fill="rgb(255, 255, 255)" stroke="none" stroke-width="1px">0.38</text><text x="0" y="70.79375" dx="0em" dy="0.3em" style="text-anchor: end; visibility: inherit; font-family: Roboto, sans-serif; font-size: 12px; font-weight: 200;" fill="rgb(255, 255, 255)" stroke="none" stroke-width="1px">0.4</text><text x="0" y="58.99479166666669" dx="0em" dy="0.3em" style="text-anchor: end; visibility: hidden; font-family: Roboto, sans-serif; font-size: 12px; font-weight: 200;" fill="rgb(255, 255, 255)" stroke="none" stroke-width="1px">0.42</text><text x="0" y="47.19583333333334" dx="0em" dy="0.3em" style="text-anchor: end; visibility: inherit; font-family: Roboto, sans-serif; font-size: 12px; font-weight: 200;" fill="rgb(255, 255, 255)" stroke="none" stroke-width="1px">0.44</text><text x="0" y="35.39687500000001" dx="0em" dy="0.3em" style="text-anchor: end; visibility: hidden; font-family: Roboto, sans-serif; font-size: 12px; font-weight: 200;" fill="rgb(255, 255, 255)" stroke="none" stroke-width="1px">0.46</text><text x="0" y="23.59791666666668" dx="0em" dy="0.3em" style="text-anchor: end; visibility: inherit; font-family: Roboto, sans-serif; font-size: 12px; font-weight: 200;" fill="rgb(255, 255, 255)" stroke="none" stroke-width="1px">0.48</text><text x="0" y="11.798958333333351" dx="0em" dy="0.3em" style="text-anchor: end; visibility: hidden; font-family: Roboto, sans-serif; font-size: 12px; font-weight: 200;" fill="rgb(255, 255, 255)" stroke="none" stroke-width="1px">0.5</text><text x="0" y="0" dx="0em" dy="0.3em" style="text-anchor: end; visibility: hidden; font-family: Roboto, sans-serif; font-size: 12px; font-weight: 200;" fill="rgb(255, 255, 255)" stroke="none" stroke-width="1px">0.52</text></g><line x1="50" y1="0" x2="50" y2="176.984375" fill="rgb(0, 0, 0)" stroke="rgb(204, 204, 204)" stroke-width="1px"></line></g></g><g transform="translate(50, 0)" clip-path="url(#clip_0)"><clipPath id="clip_0"><rect width="280" height="176"></rect></clipPath><g><g><g><line x1="0" y1="0" x2="0" y2="176.984375" fill="rgb(0, 0, 0)" stroke="rgb(189, 189, 189)" stroke-width="1px" opacity="0.25"></line><line x1="40" y1="0" x2="40" y2="176.984375" fill="rgb(0, 0, 0)" stroke="rgb(189, 189, 189)" stroke-width="1px" opacity="0.25"></line><line x1="80" y1="0" x2="80" y2="176.984375" fill="rgb(0, 0, 0)" stroke="rgb(189, 189, 189)" stroke-width="1px" opacity="0.25"></line><line x1="120" y1="0" x2="120" y2="176.984375" fill="rgb(0, 0, 0)" stroke="rgb(189, 189, 189)" stroke-width="1px" opacity="0.25"></line><line x1="160" y1="0" x2="160" y2="176.984375" fill="rgb(0, 0, 0)" stroke="rgb(189, 189, 189)" stroke-width="1px" opacity="0.25"></line><line x1="200" y1="0" x2="200" y2="176.984375" fill="rgb(0, 0, 0)" stroke="rgb(189, 189, 189)" stroke-width="1px" opacity="0.25"></line><line x1="240" y1="0" x2="240" y2="176.984375" fill="rgb(0, 0, 0)" stroke="rgb(189, 189, 189)" stroke-width="1px" opacity="0.25"></line><line x1="280" y1="0" x2="280" y2="176.984375" fill="rgb(0, 0, 0)" stroke="rgb(189, 189, 189)" stroke-width="1px" opacity="0.25"></line></g><g><line x1="0" y1="176.984375" x2="280" y2="176.984375" fill="rgb(0, 0, 0)" stroke="rgb(189, 189, 189)" stroke-width="1px" opacity="0.25"></line><line x1="0" y1="165.18541666666667" x2="280" y2="165.18541666666667" fill="rgb(0, 0, 0)" stroke="rgb(189, 189, 189)" stroke-width="1px" opacity="0.25"></line><line x1="0" y1="153.38645833333334" x2="280" y2="153.38645833333334" fill="rgb(0, 0, 0)" stroke="rgb(189, 189, 189)" stroke-width="1px" opacity="0.25"></line><line x1="0" y1="141.58749999999998" x2="280" y2="141.58749999999998" fill="rgb(0, 0, 0)" stroke="rgb(189, 189, 189)" stroke-width="1px" opacity="0.25"></line><line x1="0" y1="129.78854166666667" x2="280" y2="129.78854166666667" fill="rgb(0, 0, 0)" stroke="rgb(189, 189, 189)" stroke-width="1px" opacity="0.25"></line><line x1="0" y1="117.98958333333334" x2="280" y2="117.98958333333334" fill="rgb(0, 0, 0)" stroke="rgb(189, 189, 189)" stroke-width="1px" opacity="0.25"></line><line x1="0" y1="106.190625" x2="280" y2="106.190625" fill="rgb(0, 0, 0)" stroke="rgb(189, 189, 189)" stroke-width="1px" opacity="0.25"></line><line x1="0" y1="94.39166666666668" x2="280" y2="94.39166666666668" fill="rgb(0, 0, 0)" stroke="rgb(189, 189, 189)" stroke-width="1px" opacity="0.25"></line><line x1="0" y1="82.59270833333335" x2="280" y2="82.59270833333335" fill="rgb(0, 0, 0)" stroke="rgb(189, 189, 189)" stroke-width="1px" opacity="0.25"></line><line x1="0" y1="70.79375" x2="280" y2="70.79375" fill="rgb(0, 0, 0)" stroke="rgb(189, 189, 189)" stroke-width="1px" opacity="0.25"></line><line x1="0" y1="58.99479166666669" x2="280" y2="58.99479166666669" fill="rgb(0, 0, 0)" stroke="rgb(189, 189, 189)" stroke-width="1px" opacity="0.25"></line><line x1="0" y1="47.19583333333334" x2="280" y2="47.19583333333334" fill="rgb(0, 0, 0)" stroke="rgb(189, 189, 189)" stroke-width="1px" opacity="0.25"></line><line x1="0" y1="35.39687500000001" x2="280" y2="35.39687500000001" fill="rgb(0, 0, 0)" stroke="rgb(189, 189, 189)" stroke-width="1px" opacity="0.25"></line><line x1="0" y1="23.59791666666668" x2="280" y2="23.59791666666668" fill="rgb(0, 0, 0)" stroke="rgb(189, 189, 189)" stroke-width="1px" opacity="0.25"></line><line x1="0" y1="11.798958333333351" x2="280" y2="11.798958333333351" fill="rgb(0, 0, 0)" stroke="rgb(189, 189, 189)" stroke-width="1px" opacity="0.25"></line><line x1="0" y1="0" x2="280" y2="0" fill="rgb(0, 0, 0)" stroke="rgb(189, 189, 189)" stroke-width="1px" opacity="0.25"></line></g></g></g><g><g><line x1="0" y1="306.7729166666667" x2="280" y2="306.7729166666667" fill="rgb(0, 0, 0)" stroke="rgb(153, 153, 153)" stroke-width="1.5px"></line></g></g><g><g><line x1="-520" y1="0" x2="-520" y2="176.984375" fill="rgb(0, 0, 0)" stroke="rgb(153, 153, 153)" stroke-width="1.5px"></line></g></g><g><g><g><g><g><path stroke="rgb(255, 112, 67)" stroke-width="2px" d="M28.8,29.44470382804673L29.6,32.42388794571943L30.4,34.21196892837664L31.200000000000003,26.140133263121918L32,23.878234666802847L32.800000000000004,14.392419312933606L33.6,3.4054896907466654L34.288000000000004,29.495030427045204L35.088,31.32574026250994L35.888,25.471543893033843L36.688,30.00510642161514L37.488,27.085175991062794L38.288,21.191822677226508L39.088,5.830806142587824L39.775999999999996,8.452716017367164L40.576,15.812558251778103L41.376000000000005,16.11516246048132L42.175999999999995,16.52007430367715L42.976,7.438001108583305L43.776,4.144552304689251L44.576,-5.354147522379238L45.264,15.47932332901054L46.064,27.852112793637083L46.864,21.003313136149337L47.664,19.32822153790025L48.464,20.428420105875006L49.264,6.152761331415972L50.06399999999999,0.5842333006333601L50.752,19.141126343716238L51.552,24.120361273210094L52.352,28.91503134788261L53.152,26.479507351002397L53.952000000000005,19.464947464136237L54.751999999999995,11.873723043601327L55.552,9.001624804247873L56.239999999999995,19.181095051291123L57.04,26.27393563029644L57.84,25.05596988995605L58.64,32.42918487221924L59.44,24.904608777448924L60.239999999999995,20.524371067593275L61.04,15.011537366186902L61.728,30.30745415746268L62.528,24.055615676928934L63.328,17.936544111126036L64.128,12.083886764828941L64.928,18.87366237738385L65.728,14.574334607218448L66.528,5.067712633150734L67.216,20.16124383551431L68.016,18.290754957940408L68.816,19.251738279482325L69.616,22.360060835960322L70.41600000000001,18.443948660885898L71.21600000000001,13.102559204204871L72.01599999999999,4.0397028838386255L72.70400000000001,20.453206994822743L73.50399999999999,30.586641269441504L74.304,32.8578119453637L75.104,39.63591121264918L75.904,28.88247266071178L76.70400000000001,15.821657319856314L77.50399999999999,22.186311957533754L78.19200000000001,31.247587938162116L78.992,34.12190201057144L79.792,25.217451608517635L80.592,30.033794922981038L81.392,24.593405868423005L82.19200000000001,14.504290453629896L82.992,11.154299999298933L83.68,20.10152678707084L84.48,24.037640932364283L85.27999999999999,25.10540013804818L86.08,30.035885632727304L86.88,25.375321144577125L87.68,23.24236554317646L88.48,24.94644471223436L89.168,26.810808117902962L89.968,24.885514141102696L90.768,33.44262544613384L91.56800000000001,24.907710905231866L92.368,21.544170381143438L93.16799999999999,17.045701640803447L93.968,11.43570428051083L94.65599999999999,25.550765986164595L95.456,29.939041952542603L96.256,35.224168516522944L97.05600000000001,37.9879792226561L97.856,30.155318978446257L98.65599999999999,23.001364333044016L99.456,10.37506915714968L100.14399999999999,24.995380831330785L100.944,31.828152655404683L101.744,41.030340643828254L102.544,40.11731989452053L103.34400000000001,36.00731156087207L104.14399999999999,20.522420422929265L104.944,8.393513070611835L105.63199999999999,25.148692394958132L106.432,36.390745817571634L107.232,29.649204392651583L108.032,22.73627712299613L108.83200000000001,17.315161108594314L109.632,21.347489659187897L110.43199999999999,11.948156646955606L111.12,25.569290776219148L111.91999999999999,28.766133907610946L112.72,34.41681051970012L113.52,37.65046403035315L114.32000000000001,25.936679569034496L115.12,20.637447071164107L115.91999999999999,16.640226446145327L116.608,32.13528298880373L117.408,36.357529096503356L118.208,27.912979482779452L119.008,28.488128523083297L119.80799999999999,25.4669327448617L120.608,14.813387978025963L121.408,24.37249912427783L122.096,31.4270733550852L122.896,35.39157561263931L123.69600000000001,29.775015556920515L124.496,35.76751716722089L125.29599999999999,26.77864201308214L126.096,16.35993401129596L126.896,14.116252544340846L127.584,33.39211667067353L128.384,33.207558486828496L129.184,32.885623745924796L129.984,40.78914327061073L130.784,26.876446759070294L131.584,25.351601016043862L132.384,13.830736135404814L133.072,22.951906907088446L133.872,32.73617046842095L134.672,28.37381515208853L135.472,22.550040976453687L136.272,13.395239837268319L137.072,3.5114899907803734L137.872,17.671589683848413L138.56,28.565521133680814L139.36,32.63610035572829L140.16,28.014825916579632L140.96,23.03805377714314L141.76000000000002,26.778871421982746L142.56,22.47833334036862L143.36,11.018221882799489L144.048,24.80312602891675L144.848,26.674673562963722L145.64800000000002,20.054084176055532L146.44799999999998,19.87592906563398L147.248,19.65757430596004L148.048,21.150544750136266L148.84799999999998,19.078628661126167L149.536,33.944672067025465L150.33599999999998,41.47032718644591L151.136,34.28605418703586L151.936,42.494075344736146L152.736,32.68299671892411L153.536,37.104414719447036L154.336,18.280343423697094L155.024,29.450372361439154L155.824,29.312295953088636L156.624,21.99584711923416L157.424,26.98504786248536L158.22400000000002,24.563480886700937L159.024,17.325939726859254L159.82399999999998,26.721362361453934L160.512,31.281012251263665L161.31199999999998,37.85735341185974L162.112,42.765889233050636L162.912,42.190103983102965L163.712,46.458889542948455L164.512,29.696392608343288L165.312,13.94166807596413L166,32.022466707862584L166.8,40.78501790077218L167.6,23.672252151284976L168.4,27.323126401179675L169.20000000000002,31.60775096635444L170,24.963486991149722L170.79999999999998,18.40718415195101L171.488,33.9677917135866L172.288,47.22924789097078L173.088,42.529104437815135L173.88799999999998,28.44655584681252L174.688,16.60856026821269L175.488,11.689157473571747L176.288,25.173350903706357L176.976,33.49611574489867L177.776,52.71678486245273L178.576,59.53038813331664L179.376,71.10658308938507L180.17600000000002,73.23484676617103L180.976,70.95260502996673L181.776,69.91733562851034L182.464,85.44428615927646L183.264,96.82677018779984L184.06400000000002,102.46493771511398L184.86399999999998,107.57436572681215L185.664,108.80107689420092L186.464,110.99189354359434L187.26399999999998,114.03747526849405L187.952,116.49302969346006L188.75199999999998,120.1333284502152L189.552,121.86372801430069L190.352,120.78171302505059L191.15200000000002,119.57594103347893L191.952,123.54926360206287L192.752,123.63216990097251L193.44,131.3598584392253L194.24,133.47779877304038L195.04000000000002,132.5335070829481L195.84,133.14903505333103L196.64000000000001,129.71544679756167L197.44,134.82236020088814L198.23999999999998,132.89958028592045L198.928,138.98063352940903L199.72799999999998,145.42582241456265L200.528,143.49140699690912L201.328,142.41207013822395L202.128,139.86364141673425L202.928,134.10210610290216L203.728,131.7048832820943L204.416,145.0196324116865L205.216,148.25640834101813L206.016,143.1886030602432L206.816,136.62574725821972L207.616,143.12560662443653L208.41600000000003,144.8211631318592L209.21599999999998,153.05289013080525L209.90400000000002,155.65966652461032L210.704,158.6874151934001L211.504,154.42927551413956L212.304,154.89528561065325L213.10399999999998,149.172789540021L213.904,147.89781169404787L214.704,146.6266022497527L215.392,154.24311786591682L216.192,157.86826824514623L216.992,158.3514495770249L217.792,154.74894078632872L218.592,152.03827797563284L219.392,150.50451537191714L220.192,145.02186043025955L220.88,151.78082500752947L221.68,155.56755709114708L222.48000000000002,159.24535059986337L223.27999999999997,158.63956173710218L224.07999999999998,160.09955502650456L224.88,164.69600434443146L225.68,157.91121562418317L226.368,166.76091803623424L227.168,159.9858135835619L227.968,156.84970384804157L228.768,147.9151972051526L229.568,151.3191420182724L230.368,155.38450804937216L231.168,151.46722531761228L231.856,156.6824315222333L232.656,165.03330244687328L233.45600000000002,168.6555857502076L234.256,169.1839832578939L235.056,167.39495907829755L235.856,158.6698459495498L236.65599999999998,151.50924549536268L237.344,160.06542274773685L238.14399999999998,164.95860279613325L238.944,162.70600380842293L239.744,167.51407963365708L240.54399999999998,167.5803944335951L241.344,169.12347798202876L242.144,161.40737930372524L242.832,160.1414383537183L243.632,166.3598230733192L244.43200000000002,171.8104752622773L245.232,168.15946392911303L246.032,163.62930438554363L246.83200000000002,157.50049771926447L247.63199999999998,158.5838918096521" style="fill: none;" fill="none"></path></g></g></g></g><g opacity="0.2"><g><g><g><path stroke="rgb(255, 112, 67)" stroke-width="2px" d="M28.8,29.44470382804673L29.6,34.211398416322986L30.4,35.92852667172752L31.200000000000003,16.647654520782343L32,20.925099859448782L32.800000000000004,1.2701217850049507L33.6,-12.305995459854579L34.288000000000004,67.53383128015946L35.088,34.02568167274199L35.888,16.778744555823508L36.688,36.764331136023024L37.488,22.721170477693278L38.288,12.37103552756212L39.088,-17.18062482886014L39.775999999999996,12.382498872901014L40.576,26.847130872433382L41.376000000000005,16.56894072157643L42.175999999999995,17.127339261397722L42.976,-6.183725121617294L44.576,-19.60167633170883L45.264,46.72884407186262L46.064,46.4110527114322L46.864,10.730194780478886L47.664,16.81559604636084L48.464,22.078713265992704L49.264,-15.260690302774286L50.06399999999999,-7.768550196538372L50.752,46.976448814819264L51.552,31.58921091550342L52.352,36.1070348699267L53.152,22.826221840269866L53.952000000000005,8.943108471234657L54.751999999999995,0.4868869565427343L55.552,4.693477568651249L56.239999999999995,34.45030015936745L57.04,36.913196389066705L57.84,23.229021290751806L58.64,43.48900730454675L59.44,13.617744660439602L60.239999999999995,13.95401451159269L61.04,6.742286820709709L61.728,53.251329333335185L62.528,14.677857958835878L63.328,8.757936764011792L64.128,3.30490074629586L64.928,29.05832579558094L65.728,8.125342952211716L66.528,-9.192220327630615L67.216,42.801540638754794L68.016,15.485021641602136L68.816,20.693213261788106L69.616,27.022544670663777L70.41600000000001,12.569780398284413L71.21600000000001,5.090475019191719L72.01599999999999,-9.554581596702313L72.70400000000001,45.073463161289716L73.50399999999999,45.78679268136623L74.304,36.264567959246556L75.104,49.80306011357657L75.904,12.752314832806592L76.70400000000001,-3.7695656914263727L77.50399999999999,31.733293914049888L78.19200000000001,44.839501909104506L78.992,38.4333731191854L79.792,11.860776005436994L80.592,37.25830989467604L81.392,16.432822286585978L82.19200000000001,-0.6293826685597395L82.992,6.129314317802598L83.68,33.522366968728626L84.48,29.941812150304532L85.27999999999999,26.70703894657393L86.08,37.431613874745885L86.88,18.38447441235185L87.68,20.042932141075543L88.48,27.502563465821257L89.168,29.607353226405895L89.968,21.99757317590218L90.768,46.2782924036806L91.56800000000001,12.10533909387887L92.368,16.49885959501069L93.16799999999999,10.297998530293516L93.968,3.020708240071943L94.65599999999999,46.72335854464523L95.456,36.52145590210957L96.256,43.151858362493435L97.05600000000001,42.133695281855786L97.856,18.406328612131393L98.65599999999999,12.270432364940648L99.456,-8.56437360669176L100.14399999999999,46.92584834260247L100.944,42.07731039151552L101.744,54.83362262646358L102.544,38.74778877055896L103.34400000000001,29.842299060399363L104.14399999999999,-2.7049162839849683L104.944,-9.79984795786438L105.63199999999999,50.281461381477634L106.432,53.25382595149181L107.232,19.536892255271486L108.032,12.366886218513063L108.83200000000001,9.18348708699148L109.632,27.395982485078278L110.43199999999999,-2.1508428713927694L111.12,46.000991970114434L111.91999999999999,33.5613986046985L112.72,42.892825437833885L113.52,42.500944296332726L114.32000000000001,8.366002877056603L115.12,12.688598324358468L115.91999999999999,10.644395508617167L116.608,55.37786780279132L117.408,42.69089825805279L118.208,15.246155062193683L119.008,29.350852083538967L119.80799999999999,20.935139077529314L120.608,-1.1669291722277826L121.408,38.711165843655685L122.096,42.00893470129622L122.896,41.33832899897052L123.69600000000001,21.35017547334235L124.496,44.75626958267144L125.29599999999999,13.295329281874006L126.096,0.7318720086167361L126.896,10.750730343908076L127.584,62.3059128601725L128.384,32.930721211060906L129.184,32.402721634569296L129.984,52.64442255763959L130.784,6.007401991759754L131.584,23.064332401504117L132.384,-3.450561185553646L133.072,36.63366306461396L133.872,47.41256581041964L134.672,21.830282177589837L135.472,13.814379713001362L136.272,-0.3369618715097402L137.072,-11.314134778951594L137.872,38.911739223450446L138.56,44.906418308429444L139.36,38.74196918879948L140.16,21.082914257856718L140.96,15.572895567988374L141.76000000000002,32.39009788924209L142.56,16.027526217947415L143.36,-6.171945303554339L144.048,45.4804822480927L144.848,29.481994864034167L145.64800000000002,10.123200095693281L146.44799999999998,19.608696400001648L147.248,19.330042166449132L148.048,23.390000416400543L148.84799999999998,15.970754527611055L149.536,56.243737175874436L150.33599999999998,52.758809865576545L151.136,23.50964468792081L151.936,54.80610708128663L152.736,17.96637878020606L153.536,43.73654172023139L154.336,-9.955763519927835L155.024,46.20541576805215L155.824,29.10518134056281L156.624,11.021173868452527L157.424,34.468848977362136L158.22400000000002,20.9311304230243L159.024,6.469627987096717L159.82399999999998,40.81449631334595L160.512,38.12048708597822L161.31199999999998,47.721865152753914L162.112,50.12869296483698L162.912,41.3264261081815L163.712,52.86206788271668L164.512,4.552647206435611L165.312,-9.6904187226047L166,59.14366465571027L166.8,53.928844690136636L167.6,-1.9968964729457859L168.4,32.79943777602168L169.20000000000002,38.0346878141165L170,14.997091028342656L170.79999999999998,8.57272989315293L171.488,57.30870305603992L172.288,67.12143215704711L173.088,35.47888925808174L173.88799999999998,7.322732960308602L174.688,-1.148433099687076L175.488,4.3100532816102275L176.288,45.39964104890826L176.976,45.98026300668719L177.776,81.5477885387838L178.576,69.75079303961249L179.376,88.47087552348773L180.17600000000002,76.42724228135L180.976,67.5292424256603L181.776,68.36443152632566L182.464,108.73471195542564L183.264,113.90049623058488L184.06400000000002,110.9221890060852L184.86399999999998,115.23850774435948L185.664,110.64114364528407L186.464,114.27811851768445L187.26399999999998,118.60584785584362L187.952,120.17636133090903L188.75199999999998,125.59377658534795L189.552,124.45932736042887L190.352,119.1586905411755L191.15200000000002,117.7672830461214L191.952,129.5092474549388L192.752,123.75652934933703L193.44,142.95139124660443L194.24,136.65470927376302L195.04000000000002,131.11706954780968L195.84,134.07232700890552L196.64000000000001,124.56506441390763L197.44,142.48273030587782L198.23999999999998,130.01541041346889L198.928,148.1022133946419L199.72799999999998,155.0936057422931L200.528,140.58978387042882L201.328,140.79306485019626L202.128,136.0409983344997L202.928,125.45980313215405L203.728,128.10904905088248L204.416,164.99175610607492L205.216,153.11157223501553L206.016,135.58689513908078L206.816,126.7814635551845L207.616,152.87539567376177L208.41600000000003,147.3644978929932L209.21599999999998,165.40048062922435L209.90400000000002,159.56983111531784L210.704,163.22903819658484L211.504,148.04206599524866L212.304,155.5943007554238L213.10399999999998,140.58904543407263L213.904,145.98534492508819L214.704,144.71978808330994L215.392,165.667891290163L216.192,163.3059938139903L216.992,159.07622157484295L217.792,149.34517760028442L218.592,147.972283759589L219.392,148.2038714663436L220.192,136.79787801777323L220.88,161.91927187343438L221.68,161.24765521657343L222.48000000000002,164.76204086293777L223.27999999999997,157.7308784429605L224.07999999999998,162.28954496060808L224.88,171.5906783213218L225.68,147.7340325438107L226.368,180.0354716543108L227.168,149.82315690455337L227.968,152.14553924476107L228.768,134.51343724081914L229.568,156.42505923795204L230.368,161.48255709602188L231.168,145.59130121997248L231.856,164.5052408291648L232.656,177.5596088338333L233.45600000000002,174.08901070520903L234.256,169.97657951942335L235.056,164.71142280890297L235.856,145.58217625642817L236.65599999999998,140.76834481408198L237.344,172.89968862629806L238.14399999999998,172.2983728687279L238.944,159.32710532685743L239.744,174.7261933715083L240.54399999999998,167.67986663350214L241.344,171.4381033046792L242.144,149.83323128626992L242.832,158.24252692870797L243.632,175.68740015272053L244.43200000000002,179.98645354571443L245.232,162.68294692936664L246.032,156.83406507018955L246.83200000000002,148.3072877198458L247.63199999999998,160.2089829452336" style="fill: none;" fill="none"></path></g></g></g></g></g></g><g transform="translate(50, 176)" clip-path="url(#clip_1)"><clipPath id="clip_1"><rect width="280" height="23"></rect></clipPath><g><g><line x1="0" y1="0" x2="0" y2="5" style="visibility: inherit;" fill="rgb(0, 0, 0)" stroke="rgb(204, 204, 204)" stroke-width="1px"></line><line x1="40" y1="0" x2="40" y2="5" style="visibility: inherit;" fill="rgb(0, 0, 0)" stroke="rgb(204, 204, 204)" stroke-width="1px"></line><line x1="80" y1="0" x2="80" y2="5" style="visibility: inherit;" fill="rgb(0, 0, 0)" stroke="rgb(204, 204, 204)" stroke-width="1px"></line><line x1="120" y1="0" x2="120" y2="5" style="visibility: inherit;" fill="rgb(0, 0, 0)" stroke="rgb(204, 204, 204)" stroke-width="1px"></line><line x1="160" y1="0" x2="160" y2="5" style="visibility: inherit;" fill="rgb(0, 0, 0)" stroke="rgb(204, 204, 204)" stroke-width="1px"></line><line x1="200" y1="0" x2="200" y2="5" style="visibility: inherit;" fill="rgb(0, 0, 0)" stroke="rgb(204, 204, 204)" stroke-width="1px"></line><line x1="240" y1="0" x2="240" y2="5" style="visibility: inherit;" fill="rgb(0, 0, 0)" stroke="rgb(204, 204, 204)" stroke-width="1px"></line><line x1="280" y1="0" x2="280" y2="5" style="visibility: inherit;" fill="rgb(0, 0, 0)" stroke="rgb(204, 204, 204)" stroke-width="1px"></line></g><g transform="translate(0, 8)"><text x="0" y="0" dx="0em" dy="0.95em" style="text-anchor: middle; visibility: hidden; font-family: Roboto, sans-serif; font-size: 12px; font-weight: 200;" fill="rgb(255, 255, 255)" stroke="none" stroke-width="1px">65k</text><text x="40" y="0" dx="0em" dy="0.95em" style="text-anchor: middle; visibility: inherit; font-family: Roboto, sans-serif; font-size: 12px; font-weight: 200;" fill="rgb(255, 255, 255)" stroke="none" stroke-width="1px">70k</text><text x="80" y="0" dx="0em" dy="0.95em" style="text-anchor: middle; visibility: inherit; font-family: Roboto, sans-serif; font-size: 12px; font-weight: 200;" fill="rgb(255, 255, 255)" stroke="none" stroke-width="1px">75k</text><text x="120" y="0" dx="0em" dy="0.95em" style="text-anchor: middle; visibility: inherit; font-family: Roboto, sans-serif; font-size: 12px; font-weight: 200;" fill="rgb(255, 255, 255)" stroke="none" stroke-width="1px">80k</text><text x="160" y="0" dx="0em" dy="0.95em" style="text-anchor: middle; visibility: inherit; font-family: Roboto, sans-serif; font-size: 12px; font-weight: 200;" fill="rgb(255, 255, 255)" stroke="none" stroke-width="1px">85k</text><text x="200" y="0" dx="0em" dy="0.95em" style="text-anchor: middle; visibility: inherit; font-family: Roboto, sans-serif; font-size: 12px; font-weight: 200;" fill="rgb(255, 255, 255)" stroke="none" stroke-width="1px">90k</text><text x="240" y="0" dx="0em" dy="0.95em" style="text-anchor: middle; visibility: inherit; font-family: Roboto, sans-serif; font-size: 12px; font-weight: 200;" fill="rgb(255, 255, 255)" stroke="none" stroke-width="1px">95k</text><text x="280" y="0" dx="0em" dy="0.95em" style="text-anchor: middle; visibility: hidden; font-family: Roboto, sans-serif; font-size: 12px; font-weight: 200;" fill="rgb(255, 255, 255)" stroke="none" stroke-width="1px">100k</text></g><line x1="0" y1="0" x2="280" y2="0" fill="rgb(0, 0, 0)" stroke="rgb(204, 204, 204)" stroke-width="1px"></line></g></g></g></g></svg>